<svg id="Layer_1" data-name="Layer 1" xmlns="http://www.w3.org/2000/svg" viewBox="0 0 121.57 36"><defs><style>.cls-1{fill:#3a7df8;}.cls-2{fill:#222;}</style></defs><title>Nitro</title><g id="Canvas"><g id="flash"><path class="cls-1" d="M8.13,21.43c.15-.38-.15-.53-.53-.53H.43c-.46,0-.53-.46-.3-.76,0,0,14.71-19.59,15-19.89s.46-.3.38.15-3.28,13.8-3.28,13.8a.47.47,0,0,0,.46.69h7.16c.46,0,.53.3.3.61,0,0-14.71,19.89-15,20.27s-.53.3-.38-.23C5,34.85,8.13,21.43,8.13,21.43Z"/></g></g><g id="Canvas-2" data-name="Canvas"><g id="NITRO_3" data-name="NITRO 3"><path id="path0_fill" data-name="path0 fill" class="cls-2" d="M34.14,17.62V26H29.46V9h3.65L40,17.62V9h4.68V26H40.91ZM47.56,26V9h4.68V26ZM68.45,13h-4.9V26H58.87V13H54V9h14.5Zm1.7,13V9H78a5.08,5.08,0,0,1,2.3.53,5.59,5.59,0,0,1,1.8,1.34,6,6,0,0,1,1.2,1.9,5.6,5.6,0,0,1,.43,2.14,6.14,6.14,0,0,1-.65,2.78,5.68,5.68,0,0,1-1.8,2.09L84.86,26H79.58l-3-5.23H74.83V26Zm4.68-9.31h3a1,1,0,0,0,.79-.48A2.1,2.1,0,0,0,79,14.86a1.88,1.88,0,0,0-.43-1.34,1.2,1.2,0,0,0-.86-.48H74.83Zm19,9.46a8.2,8.2,0,0,1-3.53-.74,8.83,8.83,0,0,1-2.71-1.94,9,9,0,0,1-1.75-2.78,8.58,8.58,0,0,1-.62-3.22,8.37,8.37,0,0,1,.65-3.24,8.56,8.56,0,0,1,1.8-2.74,8.75,8.75,0,0,1,2.76-1.9,8.48,8.48,0,0,1,3.5-.72,8.2,8.2,0,0,1,3.53.74,8.6,8.6,0,0,1,4.44,4.75,8.52,8.52,0,0,1,.62,3.19,8.37,8.37,0,0,1-.65,3.24,8.61,8.61,0,0,1-4.56,4.63A8.31,8.31,0,0,1,93.82,26.14ZM90,17.5a5.92,5.92,0,0,0,.24,1.68,4.39,4.39,0,0,0,.72,1.42,3.67,3.67,0,0,0,1.2,1,4.19,4.19,0,0,0,3.5,0,3.6,3.6,0,0,0,1.2-1,4.27,4.27,0,0,0,.7-1.46,5.84,5.84,0,0,0,.24-1.66,5.68,5.68,0,0,0-.24-1.66,3.87,3.87,0,0,0-.74-1.42,3.37,3.37,0,0,0-1.22-1,3.57,3.57,0,0,0-1.7-.38,3.77,3.77,0,0,0-1.75.38,3.56,3.56,0,0,0-1.2,1,4.35,4.35,0,0,0-.72,1.44A6.17,6.17,0,0,0,90,17.5Zm28.25,0a3.5,3.5,0,0,1,1.34.5,3.79,3.79,0,0,1,1.06,1,4.17,4.17,0,0,1,.7,1.32,4.43,4.43,0,0,1,.26,1.54,4.22,4.22,0,0,1-1.85,3.58,6.13,6.13,0,0,1-2.14,1,11.19,11.19,0,0,1-2.86.34,10.16,10.16,0,0,1-3.26-.48,7.42,7.42,0,0,1-2.57-1.44l2.33-3.31a4.93,4.93,0,0,0,1.46.82,6.21,6.21,0,0,0,1.8.24,3.35,3.35,0,0,0,1.78-.36,1.53,1.53,0,0,0-.14-2.5,5,5,0,0,0-2.35-.41H113V16.07h.84a3.47,3.47,0,0,0,1.85-.43,1.4,1.4,0,0,0,.7-1.22,1.05,1.05,0,0,0-.41-.89,1.77,1.77,0,0,0-1.15-.34,3.1,3.1,0,0,0-1.58.43A3.77,3.77,0,0,0,112,14.87l-2.88-3.38a4.58,4.58,0,0,1,1.08-.86,8,8,0,0,1,1.49-.7,10.29,10.29,0,0,1,1.78-.43,10.85,10.85,0,0,1,1.92-.17,8.89,8.89,0,0,1,2.42.31,5.6,5.6,0,0,1,1.87.84,4,4,0,0,1,1.2,1.34,3.46,3.46,0,0,1,.43,1.73,3.91,3.91,0,0,1-.24,1.37,4.42,4.42,0,0,1-.65,1.18,3.73,3.73,0,0,1-1,.89A3.27,3.27,0,0,1,118.21,17.46Z"/></g></g></svg>